<?xml version="1.0" encoding="UTF-8"?>
<svg id="Layer_1" data-name="Layer 1" xmlns="http://www.w3.org/2000/svg" viewBox="0 0 64 64">
  <defs>
    <style>
      .cls-1 {
        isolation: isolate;
      }

      .cls-2 {
        fill: none;
        stroke: #c9a96e;
        stroke-width: 2.5px;
      }

      .cls-3 {
        fill: #0d0d0d;
      }

      .cls-4 {
        fill: #c9a96e;
      }
    </style>
  </defs>
  <circle class="cls-3" cx="32" cy="32" r="32"/>
  <circle class="cls-2" cx="32" cy="32" r="29.5"/>
  <g class="cls-1">
    <path class="cls-4" d="M6.46,38.1v-13.67h16.51c1.29,0,2.46.15,3.49.44,1.03.29,1.85.78,2.46,1.46.6.68.91,1.62.91,2.8,0,.78-.14,1.43-.43,1.94-.29.51-.68.91-1.17,1.2-.5.29-1.07.49-1.71.62-.64.13-1.31.21-2.01.24l-1.56-.3c1.69.01,3,.08,3.92.21.92.13,1.56.36,1.92.69.36.33.54.82.54,1.44v2.93h-5.34v-2.29c0-.43-.08-.75-.25-.97-.16-.22-.52-.37-1.07-.46-.55-.08-1.39-.13-2.53-.13h-8.35v3.84h-5.34ZM11.79,30.69h11.17c.43,0,.79-.07,1.08-.21s.44-.41.44-.81c0-.37-.15-.62-.44-.76-.29-.13-.65-.2-1.08-.2h-11.17v1.99Z"/>
    <path class="cls-4" d="M54.19,33.91l-1.99,1.13v-10.61h5.34v13.67h-5.34l-16.08-9.31,1.99-1.15v10.47h-5.34v-13.67h5.34l16.08,9.48Z"/>
  </g>
</svg>